<?xml version="1.0" encoding="UTF-8"?>
<svg version="1.1" xmlns="http://www.w3.org/2000/svg" width="235" height="215">
<path d="M0 0 C9.50970639 7.91599869 12.64165426 19.07692666 13.75 30.9375 C14.29623931 40.41576359 12.94238729 47.44752453 7 55 C0.22433802 61.93698726 -10.67421126 66.90592888 -20.43359375 67.03125 C-32.65866872 66.2869532 -40.38113213 59.22757856 -48.34375 50.40234375 C-54.35390519 43.18362475 -56.61536092 37.41199697 -56.34765625 27.94921875 C-55.50181966 20.77386339 -51.43571018 17.19209854 -46.04541016 12.83227539 C-43.6086934 10.9210057 -41.13620722 9.06253438 -38.64599609 7.22167969 C-37.25623507 6.190181 -35.88557072 5.13302667 -34.51953125 4.0703125 C-23.57344818 -4.44095518 -12.68719688 -6.65190293 0 0 Z " fill="#8496BE" transform="translate(79,52)"/>
<path d="M0 0 C6.95560717 -0.38711638 12.70664826 1.662846 19.11328125 4.19140625 C19.83354492 4.47048828 20.55380859 4.74957031 21.29589844 5.03710938 C39.61553302 12.23656527 39.61553302 12.23656527 44.11328125 20.19140625 C46.98661218 28.81139903 45.36602638 37.37200021 41.59765625 45.40625 C36.77292939 54.45896119 30.97160522 63.24807666 21.11328125 67.19140625 C11.90731406 69.92052387 0.97582618 68.418807 -7.88671875 65.19140625 C-16.77644583 59.54917474 -20.72971114 52.45720797 -23.13671875 42.50390625 C-24.9411887 32.05098573 -25.51088702 20.07388926 -19.375 10.94140625 C-15.21554616 5.85659078 -10.84232573 2.4405453 -4.51171875 0.44140625 C-3.00743884 0.2981415 -1.50337014 0.15251581 0 0 Z " fill="#8294BD" transform="translate(171.88671875,91.80859375)"/>
<path d="M0 0 C1.48868952 0.55858333 2.96831254 1.14197038 4.4375 1.75 C5.15292969 2.04003906 5.86835938 2.33007812 6.60546875 2.62890625 C11.55659346 4.84901658 14.51168998 7.13963269 17.4375 11.75 C19.03872604 16.5437326 18.72810103 20.90526427 16.71875 25.59375 C13.13846762 31.61910328 8.35994857 37.7645738 1.4375 39.75 C-5.06170221 40.48810999 -10.87378178 40.20784833 -16.5625 36.75 C-21.63562993 32.0996309 -24.16569215 27.51044645 -24.8984375 20.56640625 C-24.98086095 13.70053254 -24.86890779 9.22030179 -20.5625 3.75 C-14.15429397 -2.0479007 -8.19156455 -2.61674979 0 0 Z " fill="#8899C0" transform="translate(170.5625,166.25)"/>
<path d="M0 0 C6.57136192 3.4171082 10.53565434 7.93806836 12.8125 14.875 C14.31159056 20.58011035 14.87006242 25.33543385 13 31.0625 C9.09811778 36.79338951 3.97559792 41.66424721 -3 43 C-10.57170033 43.68833639 -15.50103198 41.43607087 -21.1875 36.75 C-25.95293147 32.3361926 -28.57965022 28.64820361 -29.625 22.0625 C-29.29470818 16.86791051 -26.60605876 13.56476801 -23 10 C-15.9470738 4.16380668 -9.54181456 -1.00440153 0 0 Z " fill="#8496BE" transform="translate(97,115)"/>
<path d="M0 0 C5.55346826 6.02947983 6.8752556 10.41816688 6.5703125 18.5703125 C5.84508723 23.88369765 3.07518047 26.44603206 -0.5 30.1875 C-4.64629758 32.92562104 -7.87769848 33.6678929 -12.8125 33.375 C-18.09141584 31.64920059 -20.63170937 28.73722715 -23.8125 24.375 C-25.65460411 18.84868768 -25.88774045 12.4952071 -23.9765625 6.94921875 C-21.54440172 2.61540206 -18.57603729 -0.11841514 -13.99609375 -2.06640625 C-8.890518 -3.37248377 -4.51825361 -2.61054653 0 0 Z " fill="#899AC1" transform="translate(82.8125,12.625)"/>
<path d="M0 0 C2.875 2.375 2.875 2.375 5 5 C5.5775 5.70125 6.155 6.4025 6.75 7.125 C9.91941426 11.87912139 9.56624463 17.51057286 9 23 C6.83854897 27.40295581 4.15647034 30.39012327 0 33 C-4.88737481 34.38321929 -8.48390793 34.0965275 -13.07421875 32.14453125 C-17.46868273 29.53281128 -20.106365 25.70956261 -22.4375 21.25 C-23.4741974 15.26019283 -23.35230281 9.3182334 -20.25 4 C-13.67504784 -1.84440192 -8.21668469 -2.99857545 0 0 Z " fill="#8597BF" transform="translate(159,60)"/>
<path d="M0 0 C4.89270769 2.40019623 7.18686184 4.86277521 9 10 C9.54744239 14.37953911 9.31855157 16.41781955 7.1875 20.3125 C4.30192254 23.85763802 2.82787282 24.90341484 -1.75 25.4375 C-5.90249579 25.33771729 -8.36475703 23.9107488 -11.65234375 21.484375 C-14.68176601 18.14762005 -14.27189303 13.46406606 -14.22265625 9.1875 C-13.91498448 6.16475977 -12.91051889 4.33507864 -11 2 C-7.28442086 -0.47705276 -4.30678823 -0.65254367 0 0 Z " fill="#899AC1" transform="translate(45,22)"/>
<path d="M0 0 C3.02508145 1.73602105 5.41790069 3.83580137 7 7 C7.597441 11.56021423 7.95847084 16.03171166 5.90625 20.24609375 C3.35097233 23.5149463 1.47194794 24.83987481 -2.5 26.1875 C-7.54429357 25.91726999 -10.29706928 23.87727839 -13.640625 20.19140625 C-16.16067674 16.12890904 -15.73138951 11.60110494 -15 7 C-11.72774709 0.7463611 -6.83498128 -1.16663873 0 0 Z " fill="#8D9DC2" transform="translate(188,61)"/>
<path d="M0 0 C3.31301121 1.72021736 5.41950434 3.0913981 7.4375 6.25 C8.21290017 10.04084527 8.18970694 13.29619537 7 17 C4.5 19.9375 4.5 19.9375 2 22 C1.67 22.33 1.34 22.66 1 23 C-6.07616708 23.58968059 -6.07616708 23.58968059 -9.9375 21.125 C-13.48617625 17.4687881 -13.3879121 14.48056612 -13.359375 9.55078125 C-12.78039966 5.44131496 -11.00085071 3.78650423 -8 1 C-5.13391871 -0.43304064 -3.18699217 -0.30644155 0 0 Z " fill="#8F9FC4" transform="translate(210,71)"/>
<path d="M0 0 C3.22254402 2.13740165 6.25333994 4.50667988 8 8 C8.55512815 12.63213493 8.6364242 15.98172127 6.125 20 C3.46599495 22.50259299 2.46203395 22.93658357 -1.1875 23.4375 C-6.16618838 22.8661751 -8.77040136 20.74961876 -12 17 C-13.21762731 13.34711807 -13.39075851 10.84245864 -13 7 C-9.7424554 1.5423973 -6.38507882 -0.8433123 0 0 Z " fill="#8B9CC2" transform="translate(25,38)"/>
<path d="M0 0 C2.95847465 2.46539554 3.00740088 4.06660789 3.4375 7.9375 C3.30179987 10.96248215 2.89183384 12.20767903 1.4375 15 C-1 17 -1 17 -4.4375 17.625 C-8.89116599 16.84365509 -10.29862089 15.57535471 -13 12 C-14.0625 9.5625 -14.0625 9.5625 -14 7 C-12.37110469 3.92319775 -10.89799927 1.68846611 -8.125 -0.4375 C-5.06903063 -1.24643307 -3.01573261 -0.89830333 0 0 Z " fill="#96A5C7" transform="translate(227,92)"/>
<path d="M0 0 C2.69990662 1.79993774 4.5418865 3.083773 6 6 C6.49299302 10.35477171 6.45282859 12.34134023 3.9375 16 C1 18 1 18 -2.5625 18.125 C-6.70049994 16.77074547 -7.9596146 15.83592455 -10 12 C-10.76118966 8.04495268 -10.62584639 4.96284059 -8.375 1.5 C-5.25991849 -0.4674199 -3.62829011 -0.5923739 0 0 Z " fill="#93A3C6" transform="translate(15,62)"/>
<path d="M0 0 C0.79921875 0.19464844 1.5984375 0.38929687 2.421875 0.58984375 C3.02515625 0.74582031 3.6284375 0.90179688 4.25 1.0625 C4.25 2.0525 4.25 3.0425 4.25 4.0625 C3.92 3.4025 3.59 2.7425 3.25 2.0625 C-1.04 2.0625 -5.33 2.0625 -9.75 2.0625 C-10.41 3.3825 -11.07 4.7025 -11.75 6.0625 C-12.77867187 6.72185547 -12.77867187 6.72185547 -13.828125 7.39453125 C-16.07132423 8.99522995 -16.07132423 8.99522995 -16.359375 12.19921875 C-16.40578125 13.37097656 -16.4521875 14.54273437 -16.5 15.75 C-16.55671875 16.92949219 -16.6134375 18.10898438 -16.671875 19.32421875 C-16.69765625 20.22785156 -16.7234375 21.13148437 -16.75 22.0625 C-19.45245006 18.00882491 -18.82328776 15.43519912 -18.2890625 10.7265625 C-17.33905073 6.03157679 -15.05142 3.973494 -11.25 1.3125 C-7.09536252 -0.76481874 -4.527725 -1.13193125 0 0 Z " fill="#BBC4D9" transform="translate(154.75,58.9375)"/>
<path d="M0 0 C0.66 0.66 1.32 1.32 2 2 C-4.58692068 1.23997069 -4.58692068 1.23997069 -6.76171875 -0.0234375 C-10.04300975 -1.45506533 -13.00281358 -1.26391862 -16.5625 -1.25 C-17.23474609 -1.25773437 -17.90699219 -1.26546875 -18.59960938 -1.2734375 C-22.28422836 -1.25880148 -23.85615148 -1.09589902 -27 1 C-29.1875 0.625 -29.1875 0.625 -31 0 C-21.03165999 -6.55062343 -10.49131891 -4.48458874 0 0 Z " fill="#B7C1D7" transform="translate(191,96)"/>
<path d="M0 0 C0.66 0.33 1.32 0.66 2 1 C0.54540569 2.64913882 -0.91379257 4.29421782 -2.375 5.9375 C-3.18710938 6.85402344 -3.99921875 7.77054687 -4.8359375 8.71484375 C-7 11 -7 11 -9 12 C-9.46898963 14.8159849 -9.46898963 14.8159849 -9.625 18.0625 C-9.69976562 19.16722656 -9.77453125 20.27195313 -9.8515625 21.41015625 C-9.90054688 22.26480469 -9.94953125 23.11945313 -10 24 C-12.09511364 20.85732955 -12.54178139 18.93600525 -12.4453125 15.1875 C-11.10409671 8.59907155 -5.09953579 3.8853606 0 0 Z " fill="#B7C1D6" transform="translate(80,120)"/>
<path d="M0 0 C2.9375 1.5 2.9375 1.5 5 3 C1.69060786 4.65469607 -1.78264291 3.52208207 -5.37109375 3.05859375 C-8.23612176 2.74350692 -8.23612176 2.74350692 -11 5 C-13.1875 4.625 -13.1875 4.625 -15 4 C-9.92288353 1.04604133 -6.03727351 -0.79737575 0 0 Z " fill="#C1C9DC" transform="translate(97,115)"/>
<path d="M0 0 C1.8871875 0.061875 1.8871875 0.061875 3.8125 0.125 C3.8125 0.455 3.8125 0.785 3.8125 1.125 C1.5025 1.125 -0.8075 1.125 -3.1875 1.125 C-3.5896875 1.99125 -3.5896875 1.99125 -4 2.875 C-5.1875 5.125 -5.1875 5.125 -6.75 6.9375 C-8.69695189 9.90025287 -8.85240689 12.6400317 -9.1875 16.125 C-9.5175 16.125 -9.8475 16.125 -10.1875 16.125 C-10.75457317 6.4847561 -10.75457317 6.4847561 -7.1875 2.125 C-4.09861478 0.06574319 -3.47814073 -0.1140374 0 0 Z " fill="#BEC7DB" transform="translate(41.1875,21.875)"/>
<path d="M0 0 C0.66 0.33 1.32 0.66 2 1 C-0.97 4.3 -3.94 7.6 -7 11 C-7.33 10.34 -7.66 9.68 -8 9 C-6.07666989 4.93963643 -3.59930552 2.62652025 0 0 Z " fill="#A7B4CF" transform="translate(80,120)"/>
<path d="M0 0 C0.66 0 1.32 0 2 0 C1.41892368 3.7602985 0.34800504 6.53035032 -1.5625 9.8125 C-2.01753906 10.60269531 -2.47257813 11.39289063 -2.94140625 12.20703125 C-3.29074219 12.79871094 -3.64007813 13.39039063 -4 14 C-5.125 10.25 -5.125 10.25 -4 8 C-3.34 8 -2.68 8 -2 8 C-1.34 5.36 -0.68 2.72 0 0 Z " fill="#BAC3D9" transform="translate(213,131)"/>
<path d="M0 0 C2.62030687 4.86628419 4.3283194 9.4185702 4 15 C0.57974684 11.57974684 0.04655199 7.28017975 -0.125 2.5625 C-0.08375 1.716875 -0.0425 0.87125 0 0 Z " fill="#B7C1D7" transform="translate(149,129)"/>
<path d="M0 0 C0.66 0.33 1.32 0.66 2 1 C1.04882866 2.1725131 0.08882991 3.33787015 -0.875 4.5 C-1.40867187 5.1496875 -1.94234375 5.799375 -2.4921875 6.46875 C-2.98976562 6.9740625 -3.48734375 7.479375 -4 8 C-4.66 8 -5.32 8 -6 8 C-4.73058503 4.08597051 -3.48832306 2.20927127 0 0 Z " fill="#A9B5D0" transform="translate(66,12)"/>
<path d="M0 0 C1 2 1 2 0.44140625 4.1640625 C0.15136719 4.97617187 -0.13867188 5.78828125 -0.4375 6.625 C-0.72496094 7.44226562 -1.01242187 8.25953125 -1.30859375 9.1015625 C-1.53675781 9.72804688 -1.76492188 10.35453125 -2 11 C-2.33 11 -2.66 11 -3 11 C-3.36923077 4.6 -3.36923077 4.6 -1.5 1.5625 C-1.005 1.046875 -0.51 0.53125 0 0 Z " fill="#B9C3D7" transform="translate(15,41)"/>
</svg>
